<svg width="24" height="24" viewBox="0 0 17 17" fill="none" xmlns="http://www.w3.org/2000/svg">
<path d="M8.50008 12.75H2.83341C2.45769 12.75 2.09736 12.6007 1.83168 12.3351C1.566 12.0694 1.41675 11.7091 1.41675 11.3333V5.66667C1.41675 5.29094 1.566 4.93061 1.83168 4.66493C2.09736 4.39926 2.45769 4.25 2.83341 4.25H14.1667C14.5425 4.25 14.9028 4.39926 15.1685 4.66493C15.4342 4.93061 15.5834 5.29094 15.5834 5.66667V9.20833" stroke="white" stroke-width="2" stroke-linecap="round" stroke-linejoin="round"/>
<path d="M12.75 8.5H12.7571" stroke="white" stroke-width="2" stroke-linecap="round" stroke-linejoin="round"/>
<path d="M13.4583 15.583V11.333" stroke="white" stroke-width="2" stroke-linecap="round" stroke-linejoin="round"/>
<path d="M15.5833 13.458L13.4583 11.333L11.3333 13.458" stroke="white" stroke-width="2" stroke-linecap="round" stroke-linejoin="round"/>
<path d="M4.25 8.5H4.25708" stroke="white" stroke-width="2" stroke-linecap="round" stroke-linejoin="round"/>
<path d="M8.49992 9.91634C9.28232 9.91634 9.91659 9.28208 9.91659 8.49967C9.91659 7.71727 9.28232 7.08301 8.49992 7.08301C7.71752 7.08301 7.08325 7.71727 7.08325 8.49967C7.08325 9.28208 7.71752 9.91634 8.49992 9.91634Z" stroke="white" stroke-width="2" stroke-linecap="round" stroke-linejoin="round"/>
</svg>
